<?xml version="1.0" encoding="utf-8" ?>
<svg baseProfile="full" height="57.5mm" version="1.1" viewBox="0,0,306.20000000000005,57.5" width="306.20000000000005mm" xmlns="http://www.w3.org/2000/svg" xmlns:ev="http://www.w3.org/2001/xml-events" xmlns:xlink="http://www.w3.org/1999/xlink"><defs /><rect fill="#FFFFFF" height="57.5" width="306.20000000000005" x="0" y="0" /><text fill="#000000" style="font-size:6px; font-family:Arial; font-weight:bold;" x="10" y="10">Duolingo</text><text fill="#000000" style="font-size:3px; font-family:Arial;" x="10" y="14.4">2025: 202515 经验</text><text fill="#000000" style="font-size:2.5px; font-family:Arial" x="10" y="18.3">Jan</text><rect fill="#EBEDF0" height="4" rx="1" ry="1" width="4" x="10" y="19.7"><title>2024-12-30</title></rect><rect fill="#EBEDF0" height="4" rx="1" ry="1" width="4" x="10" y="25.1"><title>2024-12-31</title></rect><rect fill="#EBEDF0" height="4" rx="1" ry="1" width="4" x="10" y="30.5"><title>2025-01-01</title></rect><rect fill="#EBEDF0" height="4" rx="1" ry="1" width="4" x="10" y="35.9"><title>2025-01-02</title></rect><rect fill="#EBEDF0" height="4" rx="1" ry="1" width="4" x="10" y="41.300000000000004"><title>2025-01-03</title></rect><rect fill="#EBEDF0" height="4" rx="1" ry="1" width="4" x="10" y="46.699999999999996"><title>2025-01-04</title></rect><rect fill="#EBEDF0" height="4" rx="1" ry="1" width="4" x="10" y="52.1"><title>2025-01-05</title></rect><rect fill="#EBEDF0" height="4" rx="1" ry="1" width="4" x="15.4" y="19.7"><title>2025-01-06</title></rect><rect fill="#EBEDF0" height="4" rx="1" ry="1" width="4" x="15.4" y="25.1"><title>2025-01-07</title></rect><rect fill="#EBEDF0" height="4" rx="1" ry="1" width="4" x="15.4" y="30.5"><title>2025-01-08</title></rect><rect fill="#EBEDF0" height="4" rx="1" ry="1" width="4" x="15.4" y="35.9"><title>2025-01-09</title></rect><rect fill="#EBEDF0" height="4" rx="1" ry="1" width="4" x="15.4" y="41.300000000000004"><title>2025-01-10</title></rect><rect fill="#EBEDF0" height="4" rx="1" ry="1" width="4" x="15.4" y="46.699999999999996"><title>2025-01-11</title></rect><rect fill="#EBEDF0" height="4" rx="1" ry="1" width="4" x="15.4" y="52.1"><title>2025-01-12</title></rect><rect fill="#EBEDF0" height="4" rx="1" ry="1" width="4" x="20.8" y="19.7"><title>2025-01-13</title></rect><rect fill="#EBEDF0" height="4" rx="1" ry="1" width="4" x="20.8" y="25.1"><title>2025-01-14</title></rect><rect fill="#EBEDF0" height="4" rx="1" ry="1" width="4" x="20.8" y="30.5"><title>2025-01-15</title></rect><rect fill="#EBEDF0" height="4" rx="1" ry="1" width="4" x="20.8" y="35.9"><title>2025-01-16</title></rect><rect fill="#EBEDF0" height="4" rx="1" ry="1" width="4" x="20.8" y="41.300000000000004"><title>2025-01-17</title></rect><rect fill="#EBEDF0" height="4" rx="1" ry="1" width="4" x="20.8" y="46.699999999999996"><title>2025-01-18</title></rect><rect fill="#EBEDF0" height="4" rx="1" ry="1" width="4" x="20.8" y="52.1"><title>2025-01-19</title></rect><rect fill="#EBEDF0" height="4" rx="1" ry="1" width="4" x="26.200000000000003" y="19.7"><title>2025-01-20</title></rect><rect fill="#EBEDF0" height="4" rx="1" ry="1" width="4" x="26.200000000000003" y="25.1"><title>2025-01-21</title></rect><rect fill="#EBEDF0" height="4" rx="1" ry="1" width="4" x="26.200000000000003" y="30.5"><title>2025-01-22</title></rect><rect fill="#EBEDF0" height="4" rx="1" ry="1" width="4" x="26.200000000000003" y="35.9"><title>2025-01-23</title></rect><rect fill="#EBEDF0" height="4" rx="1" ry="1" width="4" x="26.200000000000003" y="41.300000000000004"><title>2025-01-24</title></rect><rect fill="#EBEDF0" height="4" rx="1" ry="1" width="4" x="26.200000000000003" y="46.699999999999996"><title>2025-01-25</title></rect><rect fill="#EBEDF0" height="4" rx="1" ry="1" width="4" x="26.200000000000003" y="52.1"><title>2025-01-26</title></rect><rect fill="#EBEDF0" height="4" rx="1" ry="1" width="4" x="31.6" y="19.7"><title>2025-01-27</title></rect><rect fill="#EBEDF0" height="4" rx="1" ry="1" width="4" x="31.6" y="25.1"><title>2025-01-28</title></rect><rect fill="#EBEDF0" height="4" rx="1" ry="1" width="4" x="31.6" y="30.5"><title>2025-01-29</title></rect><rect fill="#EBEDF0" height="4" rx="1" ry="1" width="4" x="31.6" y="35.9"><title>2025-01-30</title></rect><rect fill="#EBEDF0" height="4" rx="1" ry="1" width="4" x="31.6" y="41.300000000000004"><title>2025-01-31</title></rect><rect fill="#EBEDF0" height="4" rx="1" ry="1" width="4" x="31.6" y="46.699999999999996"><title>2025-02-01</title></rect><rect fill="#EBEDF0" height="4" rx="1" ry="1" width="4" x="31.6" y="52.1"><title>2025-02-02</title></rect><text fill="#000000" style="font-size:2.5px; font-family:Arial" x="37.0" y="18.3">Feb</text><rect fill="#EBEDF0" height="4" rx="1" ry="1" width="4" x="37.0" y="19.7"><title>2025-02-03</title></rect><rect fill="#EBEDF0" height="4" rx="1" ry="1" width="4" x="37.0" y="25.1"><title>2025-02-04</title></rect><rect fill="#EBEDF0" height="4" rx="1" ry="1" width="4" x="37.0" y="30.5"><title>2025-02-05</title></rect><rect fill="#EBEDF0" height="4" rx="1" ry="1" width="4" x="37.0" y="35.9"><title>2025-02-06</title></rect><rect fill="#EBEDF0" height="4" rx="1" ry="1" width="4" x="37.0" y="41.300000000000004"><title>2025-02-07</title></rect><rect fill="#EBEDF0" height="4" rx="1" ry="1" width="4" x="37.0" y="46.699999999999996"><title>2025-02-08</title></rect><rect fill="#EBEDF0" height="4" rx="1" ry="1" width="4" x="37.0" y="52.1"><title>2025-02-09</title></rect><rect fill="#EBEDF0" height="4" rx="1" ry="1" width="4" x="42.4" y="19.7"><title>2025-02-10</title></rect><rect fill="#EBEDF0" height="4" rx="1" ry="1" width="4" x="42.4" y="25.1"><title>2025-02-11</title></rect><rect fill="#EBEDF0" height="4" rx="1" ry="1" width="4" x="42.4" y="30.5"><title>2025-02-12</title></rect><rect fill="#EBEDF0" height="4" rx="1" ry="1" width="4" x="42.4" y="35.9"><title>2025-02-13</title></rect><rect fill="#EBEDF0" height="4" rx="1" ry="1" width="4" x="42.4" y="41.300000000000004"><title>2025-02-14</title></rect><rect fill="#EBEDF0" height="4" rx="1" ry="1" width="4" x="42.4" y="46.699999999999996"><title>2025-02-15</title></rect><rect fill="#EBEDF0" height="4" rx="1" ry="1" width="4" x="42.4" y="52.1"><title>2025-02-16</title></rect><rect fill="#EBEDF0" height="4" rx="1" ry="1" width="4" x="47.8" y="19.7"><title>2025-02-17</title></rect><rect fill="#a2e2a4" height="4" rx="1" ry="1" width="4" x="47.8" y="25.1"><title>2025-02-18 247.0 经验</title></rect><rect fill="#a9e6ab" height="4" rx="1" ry="1" width="4" x="47.8" y="30.5"><title>2025-02-19 60.0 经验</title></rect><rect fill="#a7e5a9" height="4" rx="1" ry="1" width="4" x="47.8" y="35.9"><title>2025-02-20 117.0 经验</title></rect><rect fill="#aae6ac" height="4" rx="1" ry="1" width="4" x="47.8" y="41.300000000000004"><title>2025-02-21 56.0 经验</title></rect><rect fill="#a9e6ab" height="4" rx="1" ry="1" width="4" x="47.8" y="46.699999999999996"><title>2025-02-22 65.0 经验</title></rect><rect fill="#a7e5a9" height="4" rx="1" ry="1" width="4" x="47.8" y="52.1"><title>2025-02-23 109.0 经验</title></rect><rect fill="#97dd9a" height="4" rx="1" ry="1" width="4" x="53.199999999999996" y="19.7"><title>2025-02-24 503.0 经验</title></rect><rect fill="#98dd9b" height="4" rx="1" ry="1" width="4" x="53.199999999999996" y="25.1"><title>2025-02-25 470.0 经验</title></rect><rect fill="#a0e1a2" height="4" rx="1" ry="1" width="4" x="53.199999999999996" y="30.5"><title>2025-02-26 296.0 经验</title></rect><rect fill="#9fe1a1" height="4" rx="1" ry="1" width="4" x="53.199999999999996" y="35.9"><title>2025-02-27 310.0 经验</title></rect><rect fill="#97dd9a" height="4" rx="1" ry="1" width="4" x="53.199999999999996" y="41.300000000000004"><title>2025-02-28 495.0 经验</title></rect><rect fill="#96dc99" height="4" rx="1" ry="1" width="4" x="53.199999999999996" y="46.699999999999996"><title>2025-03-01 522.0 经验</title></rect><rect fill="#a0e1a2" height="4" rx="1" ry="1" width="4" x="53.199999999999996" y="52.1"><title>2025-03-02 281.0 经验</title></rect><text fill="#000000" style="font-size:2.5px; font-family:Arial" x="58.599999999999994" y="18.3">Mar</text><rect fill="#60b764" height="4" rx="1" ry="1" width="4" x="58.599999999999994" y="19.7"><title>2025-03-03 904.0 经验</title></rect><rect fill="#92da94" height="4" rx="1" ry="1" width="4" x="58.599999999999994" y="25.1"><title>2025-03-04 643.0 经验</title></rect><rect fill="#93db96" height="4" rx="1" ry="1" width="4" x="58.599999999999994" y="30.5"><title>2025-03-05 594.0 经验</title></rect><rect fill="#a2e2a4" height="4" rx="1" ry="1" width="4" x="58.599999999999994" y="35.9"><title>2025-03-06 233.0 经验</title></rect><rect fill="#a7e5a9" height="4" rx="1" ry="1" width="4" x="58.599999999999994" y="41.300000000000004"><title>2025-03-07 114.0 经验</title></rect><rect fill="#a3e3a5" height="4" rx="1" ry="1" width="4" x="58.599999999999994" y="46.699999999999996"><title>2025-03-08 210.0 经验</title></rect><rect fill="#abe7ad" height="4" rx="1" ry="1" width="4" x="58.599999999999994" y="52.1"><title>2025-03-09 25.0 经验</title></rect><rect fill="#9cdf9e" height="4" rx="1" ry="1" width="4" x="63.99999999999999" y="19.7"><title>2025-03-10 383.0 经验</title></rect><rect fill="#a3e3a5" height="4" rx="1" ry="1" width="4" x="63.99999999999999" y="25.1"><title>2025-03-11 222.0 经验</title></rect><rect fill="#99de9c" height="4" rx="1" ry="1" width="4" x="63.99999999999999" y="30.5"><title>2025-03-12 443.0 经验</title></rect><rect fill="#9bdf9d" height="4" rx="1" ry="1" width="4" x="63.99999999999999" y="35.9"><title>2025-03-13 417.0 经验</title></rect><rect fill="#5fb664" height="4" rx="1" ry="1" width="4" x="63.99999999999999" y="41.300000000000004"><title>2025-03-14 952.0 经验</title></rect><rect fill="#a9e6ac" height="4" rx="1" ry="1" width="4" x="63.99999999999999" y="46.699999999999996"><title>2025-03-15 59.0 经验</title></rect><rect fill="#abe6ad" height="4" rx="1" ry="1" width="4" x="63.99999999999999" y="52.1"><title>2025-03-16 29.0 经验</title></rect><rect fill="#a6e4a8" height="4" rx="1" ry="1" width="4" x="69.39999999999999" y="19.7"><title>2025-03-17 141.0 经验</title></rect><rect fill="#5db461" height="4" rx="1" ry="1" width="4" x="69.39999999999999" y="25.1"><title>2025-03-18 1164.0 经验</title></rect><rect fill="#549F57" height="4" rx="1" ry="1" width="4" x="69.39999999999999" y="30.5"><title>2025-03-19 1859.0 经验</title></rect><rect fill="#549F57" height="4" rx="1" ry="1" width="4" x="69.39999999999999" y="35.9"><title>2025-03-20 1668.0 经验</title></rect><rect fill="#549F57" height="4" rx="1" ry="1" width="4" x="69.39999999999999" y="41.300000000000004"><title>2025-03-21 1454.0 经验</title></rect><rect fill="#5cb360" height="4" rx="1" ry="1" width="4" x="69.39999999999999" y="46.699999999999996"><title>2025-03-22 1254.0 经验</title></rect><rect fill="#a8e5aa" height="4" rx="1" ry="1" width="4" x="69.39999999999999" y="52.1"><title>2025-03-23 87.0 经验</title></rect><rect fill="#92da95" height="4" rx="1" ry="1" width="4" x="74.8" y="19.7"><title>2025-03-24 629.0 经验</title></rect><rect fill="#5fb663" height="4" rx="1" ry="1" width="4" x="74.8" y="25.1"><title>2025-03-25 981.0 经验</title></rect><rect fill="#5fb663" height="4" rx="1" ry="1" width="4" x="74.8" y="30.5"><title>2025-03-26 1010.0 经验</title></rect><rect fill="#9ce09f" height="4" rx="1" ry="1" width="4" x="74.8" y="35.9"><title>2025-03-27 373.0 经验</title></rect><rect fill="#96dc99" height="4" rx="1" ry="1" width="4" x="74.8" y="41.300000000000004"><title>2025-03-28 518.0 经验</title></rect><rect fill="#61b966" height="4" rx="1" ry="1" width="4" x="74.8" y="46.699999999999996"><title>2025-03-29 737.0 经验</title></rect><rect fill="#61b865" height="4" rx="1" ry="1" width="4" x="74.8" y="52.1"><title>2025-03-30 810.0 经验</title></rect><rect fill="#5fb764" height="4" rx="1" ry="1" width="4" x="80.2" y="19.7"><title>2025-03-31 927.0 经验</title></rect><rect fill="#60b764" height="4" rx="1" ry="1" width="4" x="80.2" y="25.1"><title>2025-04-01 885.0 经验</title></rect><rect fill="#a6e4a8" height="4" rx="1" ry="1" width="4" x="80.2" y="30.5"><title>2025-04-02 141.0 经验</title></rect><rect fill="#abe6ad" height="4" rx="1" ry="1" width="4" x="80.2" y="35.9"><title>2025-04-03 28.0 经验</title></rect><rect fill="#abe6ad" height="4" rx="1" ry="1" width="4" x="80.2" y="41.300000000000004"><title>2025-04-04 27.0 经验</title></rect><rect fill="#abe6ad" height="4" rx="1" ry="1" width="4" x="80.2" y="46.699999999999996"><title>2025-04-05 29.0 经验</title></rect><rect fill="#abe6ad" height="4" rx="1" ry="1" width="4" x="80.2" y="52.1"><title>2025-04-06 29.0 经验</title></rect><text fill="#000000" style="font-size:2.5px; font-family:Arial" x="85.60000000000001" y="18.3">Apr</text><rect fill="#a6e4a8" height="4" rx="1" ry="1" width="4" x="85.60000000000001" y="19.7"><title>2025-04-07 152.0 经验</title></rect><rect fill="#a2e3a5" height="4" rx="1" ry="1" width="4" x="85.60000000000001" y="25.1"><title>2025-04-08 228.0 经验</title></rect><rect fill="#9ce09f" height="4" rx="1" ry="1" width="4" x="85.60000000000001" y="30.5"><title>2025-04-09 369.0 经验</title></rect><rect fill="#62b966" height="4" rx="1" ry="1" width="4" x="85.60000000000001" y="35.9"><title>2025-04-10 693.0 经验</title></rect><rect fill="#93da96" height="4" rx="1" ry="1" width="4" x="85.60000000000001" y="41.300000000000004"><title>2025-04-11 604.0 经验</title></rect><rect fill="#97dc99" height="4" rx="1" ry="1" width="4" x="85.60000000000001" y="46.699999999999996"><title>2025-04-12 516.0 经验</title></rect><rect fill="#9fe1a1" height="4" rx="1" ry="1" width="4" x="85.60000000000001" y="52.1"><title>2025-04-13 319.0 经验</title></rect><rect fill="#60b865" height="4" rx="1" ry="1" width="4" x="91.00000000000001" y="19.7"><title>2025-04-14 836.0 经验</title></rect><rect fill="#92da94" height="4" rx="1" ry="1" width="4" x="91.00000000000001" y="25.1"><title>2025-04-15 632.0 经验</title></rect><rect fill="#5eb563" height="4" rx="1" ry="1" width="4" x="91.00000000000001" y="30.5"><title>2025-04-16 1045.0 经验</title></rect><rect fill="#99de9c" height="4" rx="1" ry="1" width="4" x="91.00000000000001" y="35.9"><title>2025-04-17 447.0 经验</title></rect><rect fill="#9cdf9e" height="4" rx="1" ry="1" width="4" x="91.00000000000001" y="41.300000000000004"><title>2025-04-18 382.0 经验</title></rect><rect fill="#a8e5aa" height="4" rx="1" ry="1" width="4" x="91.00000000000001" y="46.699999999999996"><title>2025-04-19 87.0 经验</title></rect><rect fill="#9de09f" height="4" rx="1" ry="1" width="4" x="91.00000000000001" y="52.1"><title>2025-04-20 354.0 经验</title></rect><rect fill="#a8e5aa" height="4" rx="1" ry="1" width="4" x="96.40000000000002" y="19.7"><title>2025-04-21 87.0 经验</title></rect><rect fill="#96dc98" height="4" rx="1" ry="1" width="4" x="96.40000000000002" y="25.1"><title>2025-04-22 542.0 经验</title></rect><rect fill="#5fb663" height="4" rx="1" ry="1" width="4" x="96.40000000000002" y="30.5"><title>2025-04-23 996.0 经验</title></rect><rect fill="#97dd99" height="4" rx="1" ry="1" width="4" x="96.40000000000002" y="35.9"><title>2025-04-24 510.0 经验</title></rect><rect fill="#62b966" height="4" rx="1" ry="1" width="4" x="96.40000000000002" y="41.300000000000004"><title>2025-04-25 696.0 经验</title></rect><rect fill="#9bdf9e" height="4" rx="1" ry="1" width="4" x="96.40000000000002" y="46.699999999999996"><title>2025-04-26 400.0 经验</title></rect><rect fill="#9ee0a0" height="4" rx="1" ry="1" width="4" x="96.40000000000002" y="52.1"><title>2025-04-27 337.0 经验</title></rect><rect fill="#60b764" height="4" rx="1" ry="1" width="4" x="101.80000000000003" y="19.7"><title>2025-04-28 875.0 经验</title></rect><rect fill="#5eb562" height="4" rx="1" ry="1" width="4" x="101.80000000000003" y="25.1"><title>2025-04-29 1088.0 经验</title></rect><rect fill="#5fb764" height="4" rx="1" ry="1" width="4" x="101.80000000000003" y="30.5"><title>2025-04-30 932.0 经验</title></rect><rect fill="#5fb663" height="4" rx="1" ry="1" width="4" x="101.80000000000003" y="35.9"><title>2025-05-01 1009.0 经验</title></rect><rect fill="#95db97" height="4" rx="1" ry="1" width="4" x="101.80000000000003" y="41.300000000000004"><title>2025-05-02 565.0 经验</title></rect><rect fill="#60b764" height="4" rx="1" ry="1" width="4" x="101.80000000000003" y="46.699999999999996"><title>2025-05-03 877.0 经验</title></rect><rect fill="#9ade9c" height="4" rx="1" ry="1" width="4" x="101.80000000000003" y="52.1"><title>2025-05-04 429.0 经验</title></rect><text fill="#000000" style="font-size:2.5px; font-family:Arial" x="107.20000000000003" y="18.3">May</text><rect fill="#a2e2a4" height="4" rx="1" ry="1" width="4" x="107.20000000000003" y="19.7"><title>2025-05-05 239.0 经验</title></rect><rect fill="#9de0a0" height="4" rx="1" ry="1" width="4" x="107.20000000000003" y="25.1"><title>2025-05-06 348.0 经验</title></rect><rect fill="#a7e5a9" height="4" rx="1" ry="1" width="4" x="107.20000000000003" y="30.5"><title>2025-05-07 117.0 经验</title></rect><rect fill="#92da94" height="4" rx="1" ry="1" width="4" x="107.20000000000003" y="35.9"><title>2025-05-08 637.0 经验</title></rect><rect fill="#a8e5aa" height="4" rx="1" ry="1" width="4" x="107.20000000000003" y="41.300000000000004"><title>2025-05-09 87.0 经验</title></rect><rect fill="#60b764" height="4" rx="1" ry="1" width="4" x="107.20000000000003" y="46.699999999999996"><title>2025-05-10 889.0 经验</title></rect><rect fill="#a9e6ab" height="4" rx="1" ry="1" width="4" x="107.20000000000003" y="52.1"><title>2025-05-11 62.0 经验</title></rect><rect fill="#99de9b" height="4" rx="1" ry="1" width="4" x="112.60000000000004" y="19.7"><title>2025-05-12 456.0 经验</title></rect><rect fill="#95dc98" height="4" rx="1" ry="1" width="4" x="112.60000000000004" y="25.1"><title>2025-05-13 554.0 经验</title></rect><rect fill="#5cb361" height="4" rx="1" ry="1" width="4" x="112.60000000000004" y="30.5"><title>2025-05-14 1238.0 经验</title></rect><rect fill="#60b865" height="4" rx="1" ry="1" width="4" x="112.60000000000004" y="35.9"><title>2025-05-15 859.0 经验</title></rect><rect fill="#549F57" height="4" rx="1" ry="1" width="4" x="112.60000000000004" y="41.300000000000004"><title>2025-05-16 1453.0 经验</title></rect><rect fill="#549F57" height="4" rx="1" ry="1" width="4" x="112.60000000000004" y="46.699999999999996"><title>2025-05-17 1365.0 经验</title></rect><rect fill="#a3e3a6" height="4" rx="1" ry="1" width="4" x="112.60000000000004" y="52.1"><title>2025-05-18 201.0 经验</title></rect><rect fill="#549F57" height="4" rx="1" ry="1" width="4" x="118.00000000000004" y="19.7"><title>2025-05-19 1344.0 经验</title></rect><rect fill="#549F57" height="4" rx="1" ry="1" width="4" x="118.00000000000004" y="25.1"><title>2025-05-20 1557.0 经验</title></rect><rect fill="#60b764" height="4" rx="1" ry="1" width="4" x="118.00000000000004" y="30.5"><title>2025-05-21 874.0 经验</title></rect><rect fill="#549F57" height="4" rx="1" ry="1" width="4" x="118.00000000000004" y="35.9"><title>2025-05-22 1461.0 经验</title></rect><rect fill="#549F57" height="4" rx="1" ry="1" width="4" x="118.00000000000004" y="41.300000000000004"><title>2025-05-23 1446.0 经验</title></rect><rect fill="#5fb663" height="4" rx="1" ry="1" width="4" x="118.00000000000004" y="46.699999999999996"><title>2025-05-24 1002.0 经验</title></rect><rect fill="#a3e3a5" height="4" rx="1" ry="1" width="4" x="118.00000000000004" y="52.1"><title>2025-05-25 219.0 经验</title></rect><rect fill="#549F57" height="4" rx="1" ry="1" width="4" x="123.40000000000005" y="19.7"><title>2025-05-26 1782.0 经验</title></rect><rect fill="#549F57" height="4" rx="1" ry="1" width="4" x="123.40000000000005" y="25.1"><title>2025-05-27 1477.0 经验</title></rect><rect fill="#549F57" height="4" rx="1" ry="1" width="4" x="123.40000000000005" y="30.5"><title>2025-05-28 1476.0 经验</title></rect><rect fill="#549F57" height="4" rx="1" ry="1" width="4" x="123.40000000000005" y="35.9"><title>2025-05-29 1490.0 经验</title></rect><rect fill="#5cb360" height="4" rx="1" ry="1" width="4" x="123.40000000000005" y="41.300000000000004"><title>2025-05-30 1259.0 经验</title></rect><rect fill="#60b764" height="4" rx="1" ry="1" width="4" x="123.40000000000005" y="46.699999999999996"><title>2025-05-31 903.0 经验</title></rect><rect fill="#61b966" height="4" rx="1" ry="1" width="4" x="123.40000000000005" y="52.1"><title>2025-06-01 742.0 经验</title></rect><text fill="#000000" style="font-size:2.5px; font-family:Arial" x="128.80000000000004" y="18.3">Jun</text><rect fill="#549F57" height="4" rx="1" ry="1" width="4" x="128.80000000000004" y="19.7"><title>2025-06-02 1465.0 经验</title></rect><rect fill="#549F57" height="4" rx="1" ry="1" width="4" x="128.80000000000004" y="25.1"><title>2025-06-03 1677.0 经验</title></rect><rect fill="#549F57" height="4" rx="1" ry="1" width="4" x="128.80000000000004" y="30.5"><title>2025-06-04 2091.0 经验</title></rect><rect fill="#5cb361" height="4" rx="1" ry="1" width="4" x="128.80000000000004" y="35.9"><title>2025-06-05 1235.0 经验</title></rect><rect fill="#549F57" height="4" rx="1" ry="1" width="4" x="128.80000000000004" y="41.300000000000004"><title>2025-06-06 1313.0 经验</title></rect><rect fill="#549F57" height="4" rx="1" ry="1" width="4" x="128.80000000000004" y="46.699999999999996"><title>2025-06-07 1346.0 经验</title></rect><rect fill="#549F57" height="4" rx="1" ry="1" width="4" x="128.80000000000004" y="52.1"><title>2025-06-08 1470.0 经验</title></rect><rect fill="#549F57" height="4" rx="1" ry="1" width="4" x="134.20000000000005" y="19.7"><title>2025-06-09 1625.0 经验</title></rect><rect fill="#549F57" height="4" rx="1" ry="1" width="4" x="134.20000000000005" y="25.1"><title>2025-06-10 1393.0 经验</title></rect><rect fill="#93da95" height="4" rx="1" ry="1" width="4" x="134.20000000000005" y="30.5"><title>2025-06-11 617.0 经验</title></rect><rect fill="#9fe1a1" height="4" rx="1" ry="1" width="4" x="134.20000000000005" y="35.9"><title>2025-06-12 316.0 经验</title></rect><rect fill="#549F57" height="4" rx="1" ry="1" width="4" x="134.20000000000005" y="41.300000000000004"><title>2025-06-13 1455.0 经验</title></rect><rect fill="#60b865" height="4" rx="1" ry="1" width="4" x="134.20000000000005" y="46.699999999999996"><title>2025-06-14 854.0 经验</title></rect><rect fill="#5db461" height="4" rx="1" ry="1" width="4" x="134.20000000000005" y="52.1"><title>2025-06-15 1200.0 经验</title></rect><rect fill="#549F57" height="4" rx="1" ry="1" width="4" x="139.60000000000005" y="19.7"><title>2025-06-16 1835.0 经验</title></rect><rect fill="#549F57" height="4" rx="1" ry="1" width="4" x="139.60000000000005" y="25.1"><title>2025-06-17 1643.0 经验</title></rect><rect fill="#549F57" height="4" rx="1" ry="1" width="4" x="139.60000000000005" y="30.5"><title>2025-06-18 2239.0 经验</title></rect><rect fill="#549F57" height="4" rx="1" ry="1" width="4" x="139.60000000000005" y="35.9"><title>2025-06-19 1433.0 经验</title></rect><rect fill="#549F57" height="4" rx="1" ry="1" width="4" x="139.60000000000005" y="41.300000000000004"><title>2025-06-20 1872.0 经验</title></rect><rect fill="#9bdf9d" height="4" rx="1" ry="1" width="4" x="139.60000000000005" y="46.699999999999996"><title>2025-06-21 415.0 经验</title></rect><rect fill="#aae6ac" height="4" rx="1" ry="1" width="4" x="139.60000000000005" y="52.1"><title>2025-06-22 42.0 经验</title></rect><rect fill="#abe6ad" height="4" rx="1" ry="1" width="4" x="145.00000000000006" y="19.7"><title>2025-06-23 32.0 经验</title></rect><rect fill="#60b764" height="4" rx="1" ry="1" width="4" x="145.00000000000006" y="25.1"><title>2025-06-24 920.0 经验</title></rect><rect fill="#91d994" height="4" rx="1" ry="1" width="4" x="145.00000000000006" y="30.5"><title>2025-06-25 651.0 经验</title></rect><rect fill="#96dc99" height="4" rx="1" ry="1" width="4" x="145.00000000000006" y="35.9"><title>2025-06-26 519.0 经验</title></rect><rect fill="#a6e4a8" height="4" rx="1" ry="1" width="4" x="145.00000000000006" y="41.300000000000004"><title>2025-06-27 149.0 经验</title></rect><rect fill="#EBEDF0" height="4" rx="1" ry="1" width="4" x="145.00000000000006" y="46.699999999999996"><title>2025-06-28</title></rect><rect fill="#a9e6ab" height="4" rx="1" ry="1" width="4" x="145.00000000000006" y="52.1"><title>2025-06-29 75.0 经验</title></rect><rect fill="#a3e3a5" height="4" rx="1" ry="1" width="4" x="150.40000000000006" y="19.7"><title>2025-06-30 207.0 经验</title></rect><rect fill="#60b865" height="4" rx="1" ry="1" width="4" x="150.40000000000006" y="25.1"><title>2025-07-01 856.0 经验</title></rect><rect fill="#a4e3a6" height="4" rx="1" ry="1" width="4" x="150.40000000000006" y="30.5"><title>2025-07-02 192.0 经验</title></rect><rect fill="#9cdf9e" height="4" rx="1" ry="1" width="4" x="150.40000000000006" y="35.9"><title>2025-07-03 380.0 经验</title></rect><rect fill="#60b764" height="4" rx="1" ry="1" width="4" x="150.40000000000006" y="41.300000000000004"><title>2025-07-04 916.0 经验</title></rect><rect fill="#a4e3a6" height="4" rx="1" ry="1" width="4" x="150.40000000000006" y="46.699999999999996"><title>2025-07-05 198.0 经验</title></rect><rect fill="#91d993" height="4" rx="1" ry="1" width="4" x="150.40000000000006" y="52.1"><title>2025-07-06 668.0 经验</title></rect><text fill="#000000" style="font-size:2.5px; font-family:Arial" x="155.80000000000007" y="18.3">Jul</text><rect fill="#9ade9c" height="4" rx="1" ry="1" width="4" x="155.80000000000007" y="19.7"><title>2025-07-07 432.0 经验</title></rect><rect fill="#5db461" height="4" rx="1" ry="1" width="4" x="155.80000000000007" y="25.1"><title>2025-07-08 1177.0 经验</title></rect><rect fill="#96dc99" height="4" rx="1" ry="1" width="4" x="155.80000000000007" y="30.5"><title>2025-07-09 525.0 经验</title></rect><rect fill="#a3e3a5" height="4" rx="1" ry="1" width="4" x="155.80000000000007" y="35.9"><title>2025-07-10 207.0 经验</title></rect><rect fill="#98dd9a" height="4" rx="1" ry="1" width="4" x="155.80000000000007" y="41.300000000000004"><title>2025-07-11 480.0 经验</title></rect><rect fill="#5db462" height="4" rx="1" ry="1" width="4" x="155.80000000000007" y="46.699999999999996"><title>2025-07-12 1142.0 经验</title></rect><rect fill="#a3e3a6" height="4" rx="1" ry="1" width="4" x="155.80000000000007" y="52.1"><title>2025-07-13 201.0 经验</title></rect><rect fill="#a2e2a4" height="4" rx="1" ry="1" width="4" x="161.20000000000007" y="19.7"><title>2025-07-14 243.0 经验</title></rect><rect fill="#5cb361" height="4" rx="1" ry="1" width="4" x="161.20000000000007" y="25.1"><title>2025-07-15 1237.0 经验</title></rect><rect fill="#9cdf9f" height="4" rx="1" ry="1" width="4" x="161.20000000000007" y="30.5"><title>2025-07-16 375.0 经验</title></rect><rect fill="#90d992" height="4" rx="1" ry="1" width="4" x="161.20000000000007" y="35.9"><title>2025-07-17 685.0 经验</title></rect><rect fill="#98dd9a" height="4" rx="1" ry="1" width="4" x="161.20000000000007" y="41.300000000000004"><title>2025-07-18 489.0 经验</title></rect><rect fill="#abe6ad" height="4" rx="1" ry="1" width="4" x="161.20000000000007" y="46.699999999999996"><title>2025-07-19 27.0 经验</title></rect><rect fill="#95dc97" height="4" rx="1" ry="1" width="4" x="161.20000000000007" y="52.1"><title>2025-07-20 558.0 经验</title></rect><rect fill="#a2e2a4" height="4" rx="1" ry="1" width="4" x="166.60000000000008" y="19.7"><title>2025-07-21 246.0 经验</title></rect><rect fill="#5fb663" height="4" rx="1" ry="1" width="4" x="166.60000000000008" y="25.1"><title>2025-07-22 999.0 经验</title></rect><rect fill="#5db462" height="4" rx="1" ry="1" width="4" x="166.60000000000008" y="30.5"><title>2025-07-23 1128.0 经验</title></rect><rect fill="#a5e4a7" height="4" rx="1" ry="1" width="4" x="166.60000000000008" y="35.9"><title>2025-07-24 165.0 经验</title></rect><rect fill="#92da94" height="4" rx="1" ry="1" width="4" x="166.60000000000008" y="41.300000000000004"><title>2025-07-25 639.0 经验</title></rect><rect fill="#9ee0a0" height="4" rx="1" ry="1" width="4" x="166.60000000000008" y="46.699999999999996"><title>2025-07-26 339.0 经验</title></rect><rect fill="#5fb764" height="4" rx="1" ry="1" width="4" x="166.60000000000008" y="52.1"><title>2025-07-27 926.0 经验</title></rect><rect fill="#549F57" height="4" rx="1" ry="1" width="4" x="172.00000000000009" y="19.7"><title>2025-07-28 1476.0 经验</title></rect><rect fill="#549F57" height="4" rx="1" ry="1" width="4" x="172.00000000000009" y="25.1"><title>2025-07-29 1395.0 经验</title></rect><rect fill="#549F57" height="4" rx="1" ry="1" width="4" x="172.00000000000009" y="30.5"><title>2025-07-30 1662.0 经验</title></rect><rect fill="#549F57" height="4" rx="1" ry="1" width="4" x="172.00000000000009" y="35.9"><title>2025-07-31 1861.0 经验</title></rect><rect fill="#549F57" height="4" rx="1" ry="1" width="4" x="172.00000000000009" y="41.300000000000004"><title>2025-08-01 1502.0 经验</title></rect><rect fill="#549F57" height="4" rx="1" ry="1" width="4" x="172.00000000000009" y="46.699999999999996"><title>2025-08-02 1841.0 经验</title></rect><rect fill="#5eb562" height="4" rx="1" ry="1" width="4" x="172.00000000000009" y="52.1"><title>2025-08-03 1068.0 经验</title></rect><text fill="#000000" style="font-size:2.5px; font-family:Arial" x="177.4000000000001" y="18.3">Aug</text><rect fill="#549F57" height="4" rx="1" ry="1" width="4" x="177.4000000000001" y="19.7"><title>2025-08-04 1687.0 经验</title></rect><rect fill="#549F57" height="4" rx="1" ry="1" width="4" x="177.4000000000001" y="25.1"><title>2025-08-05 2579.0 经验</title></rect><rect fill="#549F57" height="4" rx="1" ry="1" width="4" x="177.4000000000001" y="30.5"><title>2025-08-06 1647.0 经验</title></rect><rect fill="#549F57" height="4" rx="1" ry="1" width="4" x="177.4000000000001" y="35.9"><title>2025-08-07 2552.0 经验</title></rect><rect fill="#549F57" height="4" rx="1" ry="1" width="4" x="177.4000000000001" y="41.300000000000004"><title>2025-08-08 2497.0 经验</title></rect><rect fill="#549F57" height="4" rx="1" ry="1" width="4" x="177.4000000000001" y="46.699999999999996"><title>2025-08-09 1314.0 经验</title></rect><rect fill="#549F57" height="4" rx="1" ry="1" width="4" x="177.4000000000001" y="52.1"><title>2025-08-10 1827.0 经验</title></rect><rect fill="#549F57" height="4" rx="1" ry="1" width="4" x="182.8000000000001" y="19.7"><title>2025-08-11 1974.0 经验</title></rect><rect fill="#549F57" height="4" rx="1" ry="1" width="4" x="182.8000000000001" y="25.1"><title>2025-08-12 2045.0 经验</title></rect><rect fill="#549F57" height="4" rx="1" ry="1" width="4" x="182.8000000000001" y="30.5"><title>2025-08-13 1790.0 经验</title></rect><rect fill="#549F57" height="4" rx="1" ry="1" width="4" x="182.8000000000001" y="35.9"><title>2025-08-14 1392.0 经验</title></rect><rect fill="#5db461" height="4" rx="1" ry="1" width="4" x="182.8000000000001" y="41.300000000000004"><title>2025-08-15 1177.0 经验</title></rect><rect fill="#549F57" height="4" rx="1" ry="1" width="4" x="182.8000000000001" y="46.699999999999996"><title>2025-08-16 1478.0 经验</title></rect><rect fill="#549F57" height="4" rx="1" ry="1" width="4" x="182.8000000000001" y="52.1"><title>2025-08-17 2495.0 经验</title></rect><rect fill="#549F57" height="4" rx="1" ry="1" width="4" x="188.2000000000001" y="19.7"><title>2025-08-18 1383.0 经验</title></rect><rect fill="#549F57" height="4" rx="1" ry="1" width="4" x="188.2000000000001" y="25.1"><title>2025-08-19 1463.0 经验</title></rect><rect fill="#60b764" height="4" rx="1" ry="1" width="4" x="188.2000000000001" y="30.5"><title>2025-08-20 910.0 经验</title></rect><rect fill="#549F57" height="4" rx="1" ry="1" width="4" x="188.2000000000001" y="35.9"><title>2025-08-21 1393.0 经验</title></rect><rect fill="#5db461" height="4" rx="1" ry="1" width="4" x="188.2000000000001" y="41.300000000000004"><title>2025-08-22 1185.0 经验</title></rect><rect fill="#5fb664" height="4" rx="1" ry="1" width="4" x="188.2000000000001" y="46.699999999999996"><title>2025-08-23 959.0 经验</title></rect><rect fill="#5fb663" height="4" rx="1" ry="1" width="4" x="188.2000000000001" y="52.1"><title>2025-08-24 1022.0 经验</title></rect><rect fill="#549F57" height="4" rx="1" ry="1" width="4" x="193.6000000000001" y="19.7"><title>2025-08-25 1297.0 经验</title></rect><rect fill="#5cb361" height="4" rx="1" ry="1" width="4" x="193.6000000000001" y="25.1"><title>2025-08-26 1236.0 经验</title></rect><rect fill="#5eb562" height="4" rx="1" ry="1" width="4" x="193.6000000000001" y="30.5"><title>2025-08-27 1108.0 经验</title></rect><rect fill="#5eb562" height="4" rx="1" ry="1" width="4" x="193.6000000000001" y="35.9"><title>2025-08-28 1098.0 经验</title></rect><rect fill="#5db461" height="4" rx="1" ry="1" width="4" x="193.6000000000001" y="41.300000000000004"><title>2025-08-29 1197.0 经验</title></rect><rect fill="#9de09f" height="4" rx="1" ry="1" width="4" x="193.6000000000001" y="46.699999999999996"><title>2025-08-30 357.0 经验</title></rect><rect fill="#90d993" height="4" rx="1" ry="1" width="4" x="193.6000000000001" y="52.1"><title>2025-08-31 683.0 经验</title></rect><text fill="#000000" style="font-size:2.5px; font-family:Arial" x="199.0000000000001" y="18.3">Sep</text><rect fill="#5eb663" height="4" rx="1" ry="1" width="4" x="199.0000000000001" y="19.7"><title>2025-09-01 1025.0 经验</title></rect><rect fill="#95db97" height="4" rx="1" ry="1" width="4" x="199.0000000000001" y="25.1"><title>2025-09-02 566.0 经验</title></rect><rect fill="#5fb764" height="4" rx="1" ry="1" width="4" x="199.0000000000001" y="30.5"><title>2025-09-03 950.0 经验</title></rect><rect fill="#5cb360" height="4" rx="1" ry="1" width="4" x="199.0000000000001" y="35.9"><title>2025-09-04 1257.0 经验</title></rect><rect fill="#5fb663" height="4" rx="1" ry="1" width="4" x="199.0000000000001" y="41.300000000000004"><title>2025-09-05 990.0 经验</title></rect><rect fill="#5fb663" height="4" rx="1" ry="1" width="4" x="199.0000000000001" y="46.699999999999996"><title>2025-09-06 988.0 经验</title></rect><rect fill="#a8e5aa" height="4" rx="1" ry="1" width="4" x="199.0000000000001" y="52.1"><title>2025-09-07 102.0 经验</title></rect><rect fill="#9fe1a2" height="4" rx="1" ry="1" width="4" x="204.40000000000012" y="19.7"><title>2025-09-08 300.0 经验</title></rect><rect fill="#9cdf9e" height="4" rx="1" ry="1" width="4" x="204.40000000000012" y="25.1"><title>2025-09-09 378.0 经验</title></rect><rect fill="#62b966" height="4" rx="1" ry="1" width="4" x="204.40000000000012" y="30.5"><title>2025-09-10 702.0 经验</title></rect><rect fill="#5fb663" height="4" rx="1" ry="1" width="4" x="204.40000000000012" y="35.9"><title>2025-09-11 991.0 经验</title></rect><rect fill="#EBEDF0" height="4" rx="1" ry="1" width="4" x="204.40000000000012" y="41.300000000000004"><title>2025-09-12</title></rect><rect fill="#9fe1a2" height="4" rx="1" ry="1" width="4" x="204.40000000000012" y="46.699999999999996"><title>2025-09-13 301.0 经验</title></rect><rect fill="#92da95" height="4" rx="1" ry="1" width="4" x="204.40000000000012" y="52.1"><title>2025-09-14 621.0 经验</title></rect><rect fill="#97dd9a" height="4" rx="1" ry="1" width="4" x="209.80000000000013" y="19.7"><title>2025-09-15 501.0 经验</title></rect><rect fill="#62b966" height="4" rx="1" ry="1" width="4" x="209.80000000000013" y="25.1"><title>2025-09-16 711.0 经验</title></rect><rect fill="#93da95" height="4" rx="1" ry="1" width="4" x="209.80000000000013" y="30.5"><title>2025-09-17 609.0 经验</title></rect><rect fill="#5eb663" height="4" rx="1" ry="1" width="4" x="209.80000000000013" y="35.9"><title>2025-09-18 1038.0 经验</title></rect><rect fill="#9bdf9d" height="4" rx="1" ry="1" width="4" x="209.80000000000013" y="41.300000000000004"><title>2025-09-19 414.0 经验</title></rect><rect fill="#9de09f" height="4" rx="1" ry="1" width="4" x="209.80000000000013" y="46.699999999999996"><title>2025-09-20 361.0 经验</title></rect><rect fill="#5db461" height="4" rx="1" ry="1" width="4" x="209.80000000000013" y="52.1"><title>2025-09-21 1196.0 经验</title></rect><rect fill="#61b865" height="4" rx="1" ry="1" width="4" x="215.20000000000013" y="19.7"><title>2025-09-22 783.0 经验</title></rect><rect fill="#5fb664" height="4" rx="1" ry="1" width="4" x="215.20000000000013" y="25.1"><title>2025-09-23 953.0 经验</title></rect><rect fill="#90d993" height="4" rx="1" ry="1" width="4" x="215.20000000000013" y="30.5"><title>2025-09-24 674.0 经验</title></rect><rect fill="#60b765" height="4" rx="1" ry="1" width="4" x="215.20000000000013" y="35.9"><title>2025-09-25 867.0 经验</title></rect><rect fill="#95dc97" height="4" rx="1" ry="1" width="4" x="215.20000000000013" y="41.300000000000004"><title>2025-09-26 557.0 经验</title></rect><rect fill="#94db97" height="4" rx="1" ry="1" width="4" x="215.20000000000013" y="46.699999999999996"><title>2025-09-27 570.0 经验</title></rect><rect fill="#62b966" height="4" rx="1" ry="1" width="4" x="215.20000000000013" y="52.1"><title>2025-09-28 701.0 经验</title></rect><rect fill="#a0e1a2" height="4" rx="1" ry="1" width="4" x="220.60000000000014" y="19.7"><title>2025-09-29 282.0 经验</title></rect><rect fill="#90d993" height="4" rx="1" ry="1" width="4" x="220.60000000000014" y="25.1"><title>2025-09-30 672.0 经验</title></rect><rect fill="#61b966" height="4" rx="1" ry="1" width="4" x="220.60000000000014" y="30.5"><title>2025-10-01 774.0 经验</title></rect><rect fill="#5fb764" height="4" rx="1" ry="1" width="4" x="220.60000000000014" y="35.9"><title>2025-10-02 942.0 经验</title></rect><rect fill="#9ade9c" height="4" rx="1" ry="1" width="4" x="220.60000000000014" y="41.300000000000004"><title>2025-10-03 434.0 经验</title></rect><rect fill="#97dd9a" height="4" rx="1" ry="1" width="4" x="220.60000000000014" y="46.699999999999996"><title>2025-10-04 496.0 经验</title></rect><rect fill="#a1e2a3" height="4" rx="1" ry="1" width="4" x="220.60000000000014" y="52.1"><title>2025-10-05 267.0 经验</title></rect><text fill="#000000" style="font-size:2.5px; font-family:Arial" x="226.00000000000014" y="18.3">Oct</text><rect fill="#95db97" height="4" rx="1" ry="1" width="4" x="226.00000000000014" y="19.7"><title>2025-10-06 562.0 经验</title></rect><rect fill="#61b865" height="4" rx="1" ry="1" width="4" x="226.00000000000014" y="25.1"><title>2025-10-07 801.0 经验</title></rect><rect fill="#61b966" height="4" rx="1" ry="1" width="4" x="226.00000000000014" y="30.5"><title>2025-10-08 735.0 经验</title></rect><rect fill="#95db97" height="4" rx="1" ry="1" width="4" x="226.00000000000014" y="35.9"><title>2025-10-09 567.0 经验</title></rect><rect fill="#aae6ac" height="4" rx="1" ry="1" width="4" x="226.00000000000014" y="41.300000000000004"><title>2025-10-10 56.0 经验</title></rect><rect fill="#a4e3a6" height="4" rx="1" ry="1" width="4" x="226.00000000000014" y="46.699999999999996"><title>2025-10-11 185.0 经验</title></rect><rect fill="#97dd9a" height="4" rx="1" ry="1" width="4" x="226.00000000000014" y="52.1"><title>2025-10-12 494.0 经验</title></rect><rect fill="#a9e6ab" height="4" rx="1" ry="1" width="4" x="231.40000000000015" y="19.7"><title>2025-10-13 78.0 经验</title></rect><rect fill="#9fe1a1" height="4" rx="1" ry="1" width="4" x="231.40000000000015" y="25.1"><title>2025-10-14 303.0 经验</title></rect><rect fill="#90d993" height="4" rx="1" ry="1" width="4" x="231.40000000000015" y="30.5"><title>2025-10-15 682.0 经验</title></rect><rect fill="#62b966" height="4" rx="1" ry="1" width="4" x="231.40000000000015" y="35.9"><title>2025-10-16 699.0 经验</title></rect><rect fill="#9ee0a0" height="4" rx="1" ry="1" width="4" x="231.40000000000015" y="41.300000000000004"><title>2025-10-17 332.0 经验</title></rect><rect fill="#aae6ac" height="4" rx="1" ry="1" width="4" x="231.40000000000015" y="46.699999999999996"><title>2025-10-18 51.0 经验</title></rect><rect fill="#9ce09f" height="4" rx="1" ry="1" width="4" x="231.40000000000015" y="52.1"><title>2025-10-19 369.0 经验</title></rect><rect fill="#9de09f" height="4" rx="1" ry="1" width="4" x="236.80000000000015" y="19.7"><title>2025-10-20 357.0 经验</title></rect><rect fill="#95dc98" height="4" rx="1" ry="1" width="4" x="236.80000000000015" y="25.1"><title>2025-10-21 546.0 经验</title></rect><rect fill="#93da95" height="4" rx="1" ry="1" width="4" x="236.80000000000015" y="30.5"><title>2025-10-22 613.0 经验</title></rect><rect fill="#9cdf9e" height="4" rx="1" ry="1" width="4" x="236.80000000000015" y="35.9"><title>2025-10-23 387.0 经验</title></rect><rect fill="#9fe1a1" height="4" rx="1" ry="1" width="4" x="236.80000000000015" y="41.300000000000004"><title>2025-10-24 309.0 经验</title></rect><rect fill="#a5e4a7" height="4" rx="1" ry="1" width="4" x="236.80000000000015" y="46.699999999999996"><title>2025-10-25 175.0 经验</title></rect><rect fill="#9ade9c" height="4" rx="1" ry="1" width="4" x="236.80000000000015" y="52.1"><title>2025-10-26 434.0 经验</title></rect><rect fill="#60b865" height="4" rx="1" ry="1" width="4" x="242.20000000000016" y="19.7"><title>2025-10-27 832.0 经验</title></rect><rect fill="#5cb360" height="4" rx="1" ry="1" width="4" x="242.20000000000016" y="25.1"><title>2025-10-28 1277.0 经验</title></rect><rect fill="#61b966" height="4" rx="1" ry="1" width="4" x="242.20000000000016" y="30.5"><title>2025-10-29 723.0 经验</title></rect><rect fill="#91d994" height="4" rx="1" ry="1" width="4" x="242.20000000000016" y="35.9"><title>2025-10-30 650.0 经验</title></rect><rect fill="#90d993" height="4" rx="1" ry="1" width="4" x="242.20000000000016" y="41.300000000000004"><title>2025-10-31 670.0 经验</title></rect><rect fill="#96dc99" height="4" rx="1" ry="1" width="4" x="242.20000000000016" y="46.699999999999996"><title>2025-11-01 524.0 经验</title></rect><rect fill="#61b966" height="4" rx="1" ry="1" width="4" x="242.20000000000016" y="52.1"><title>2025-11-02 766.0 经验</title></rect><text fill="#000000" style="font-size:2.5px; font-family:Arial" x="247.60000000000016" y="18.3">Nov</text><rect fill="#90d993" height="4" rx="1" ry="1" width="4" x="247.60000000000016" y="19.7"><title>2025-11-03 678.0 经验</title></rect><rect fill="#60b865" height="4" rx="1" ry="1" width="4" x="247.60000000000016" y="25.1"><title>2025-11-04 823.0 经验</title></rect><rect fill="#9ee0a0" height="4" rx="1" ry="1" width="4" x="247.60000000000016" y="30.5"><title>2025-11-05 330.0 经验</title></rect><rect fill="#9bdf9d" height="4" rx="1" ry="1" width="4" x="247.60000000000016" y="35.9"><title>2025-11-06 411.0 经验</title></rect><rect fill="#EBEDF0" height="4" rx="1" ry="1" width="4" x="247.60000000000016" y="41.300000000000004"><title>2025-11-07</title></rect><rect fill="#EBEDF0" height="4" rx="1" ry="1" width="4" x="247.60000000000016" y="46.699999999999996"><title>2025-11-08</title></rect><rect fill="#EBEDF0" height="4" rx="1" ry="1" width="4" x="247.60000000000016" y="52.1"><title>2025-11-09</title></rect><rect fill="#EBEDF0" height="4" rx="1" ry="1" width="4" x="253.00000000000017" y="19.7"><title>2025-11-10</title></rect><rect fill="#EBEDF0" height="4" rx="1" ry="1" width="4" x="253.00000000000017" y="25.1"><title>2025-11-11</title></rect><rect fill="#EBEDF0" height="4" rx="1" ry="1" width="4" x="253.00000000000017" y="30.5"><title>2025-11-12</title></rect><rect fill="#EBEDF0" height="4" rx="1" ry="1" width="4" x="253.00000000000017" y="35.9"><title>2025-11-13</title></rect><rect fill="#EBEDF0" height="4" rx="1" ry="1" width="4" x="253.00000000000017" y="41.300000000000004"><title>2025-11-14</title></rect><rect fill="#EBEDF0" height="4" rx="1" ry="1" width="4" x="253.00000000000017" y="46.699999999999996"><title>2025-11-15</title></rect><rect fill="#EBEDF0" height="4" rx="1" ry="1" width="4" x="253.00000000000017" y="52.1"><title>2025-11-16</title></rect><rect fill="#EBEDF0" height="4" rx="1" ry="1" width="4" x="258.40000000000015" y="19.7"><title>2025-11-17</title></rect><rect fill="#EBEDF0" height="4" rx="1" ry="1" width="4" x="258.40000000000015" y="25.1"><title>2025-11-18</title></rect><rect fill="#EBEDF0" height="4" rx="1" ry="1" width="4" x="258.40000000000015" y="30.5"><title>2025-11-19</title></rect><rect fill="#EBEDF0" height="4" rx="1" ry="1" width="4" x="258.40000000000015" y="35.9"><title>2025-11-20</title></rect><rect fill="#EBEDF0" height="4" rx="1" ry="1" width="4" x="258.40000000000015" y="41.300000000000004"><title>2025-11-21</title></rect><rect fill="#EBEDF0" height="4" rx="1" ry="1" width="4" x="258.40000000000015" y="46.699999999999996"><title>2025-11-22</title></rect><rect fill="#EBEDF0" height="4" rx="1" ry="1" width="4" x="258.40000000000015" y="52.1"><title>2025-11-23</title></rect><rect fill="#EBEDF0" height="4" rx="1" ry="1" width="4" x="263.8000000000001" y="19.7"><title>2025-11-24</title></rect><rect fill="#EBEDF0" height="4" rx="1" ry="1" width="4" x="263.8000000000001" y="25.1"><title>2025-11-25</title></rect><rect fill="#EBEDF0" height="4" rx="1" ry="1" width="4" x="263.8000000000001" y="30.5"><title>2025-11-26</title></rect><rect fill="#EBEDF0" height="4" rx="1" ry="1" width="4" x="263.8000000000001" y="35.9"><title>2025-11-27</title></rect><rect fill="#EBEDF0" height="4" rx="1" ry="1" width="4" x="263.8000000000001" y="41.300000000000004"><title>2025-11-28</title></rect><rect fill="#EBEDF0" height="4" rx="1" ry="1" width="4" x="263.8000000000001" y="46.699999999999996"><title>2025-11-29</title></rect><rect fill="#EBEDF0" height="4" rx="1" ry="1" width="4" x="263.8000000000001" y="52.1"><title>2025-11-30</title></rect><text fill="#000000" style="font-size:2.5px; font-family:Arial" x="269.2000000000001" y="18.3">Dec</text><rect fill="#EBEDF0" height="4" rx="1" ry="1" width="4" x="269.2000000000001" y="19.7"><title>2025-12-01</title></rect><rect fill="#EBEDF0" height="4" rx="1" ry="1" width="4" x="269.2000000000001" y="25.1"><title>2025-12-02</title></rect><rect fill="#EBEDF0" height="4" rx="1" ry="1" width="4" x="269.2000000000001" y="30.5"><title>2025-12-03</title></rect><rect fill="#EBEDF0" height="4" rx="1" ry="1" width="4" x="269.2000000000001" y="35.9"><title>2025-12-04</title></rect><rect fill="#EBEDF0" height="4" rx="1" ry="1" width="4" x="269.2000000000001" y="41.300000000000004"><title>2025-12-05</title></rect><rect fill="#EBEDF0" height="4" rx="1" ry="1" width="4" x="269.2000000000001" y="46.699999999999996"><title>2025-12-06</title></rect><rect fill="#EBEDF0" height="4" rx="1" ry="1" width="4" x="269.2000000000001" y="52.1"><title>2025-12-07</title></rect><rect fill="#EBEDF0" height="4" rx="1" ry="1" width="4" x="274.6000000000001" y="19.7"><title>2025-12-08</title></rect><rect fill="#EBEDF0" height="4" rx="1" ry="1" width="4" x="274.6000000000001" y="25.1"><title>2025-12-09</title></rect><rect fill="#EBEDF0" height="4" rx="1" ry="1" width="4" x="274.6000000000001" y="30.5"><title>2025-12-10</title></rect><rect fill="#EBEDF0" height="4" rx="1" ry="1" width="4" x="274.6000000000001" y="35.9"><title>2025-12-11</title></rect><rect fill="#EBEDF0" height="4" rx="1" ry="1" width="4" x="274.6000000000001" y="41.300000000000004"><title>2025-12-12</title></rect><rect fill="#EBEDF0" height="4" rx="1" ry="1" width="4" x="274.6000000000001" y="46.699999999999996"><title>2025-12-13</title></rect><rect fill="#EBEDF0" height="4" rx="1" ry="1" width="4" x="274.6000000000001" y="52.1"><title>2025-12-14</title></rect><rect fill="#EBEDF0" height="4" rx="1" ry="1" width="4" x="280.00000000000006" y="19.7"><title>2025-12-15</title></rect><rect fill="#EBEDF0" height="4" rx="1" ry="1" width="4" x="280.00000000000006" y="25.1"><title>2025-12-16</title></rect><rect fill="#EBEDF0" height="4" rx="1" ry="1" width="4" x="280.00000000000006" y="30.5"><title>2025-12-17</title></rect><rect fill="#EBEDF0" height="4" rx="1" ry="1" width="4" x="280.00000000000006" y="35.9"><title>2025-12-18</title></rect><rect fill="#EBEDF0" height="4" rx="1" ry="1" width="4" x="280.00000000000006" y="41.300000000000004"><title>2025-12-19</title></rect><rect fill="#EBEDF0" height="4" rx="1" ry="1" width="4" x="280.00000000000006" y="46.699999999999996"><title>2025-12-20</title></rect><rect fill="#EBEDF0" height="4" rx="1" ry="1" width="4" x="280.00000000000006" y="52.1"><title>2025-12-21</title></rect><rect fill="#EBEDF0" height="4" rx="1" ry="1" width="4" x="285.40000000000003" y="19.7"><title>2025-12-22</title></rect><rect fill="#EBEDF0" height="4" rx="1" ry="1" width="4" x="285.40000000000003" y="25.1"><title>2025-12-23</title></rect><rect fill="#EBEDF0" height="4" rx="1" ry="1" width="4" x="285.40000000000003" y="30.5"><title>2025-12-24</title></rect><rect fill="#EBEDF0" height="4" rx="1" ry="1" width="4" x="285.40000000000003" y="35.9"><title>2025-12-25</title></rect><rect fill="#EBEDF0" height="4" rx="1" ry="1" width="4" x="285.40000000000003" y="41.300000000000004"><title>2025-12-26</title></rect><rect fill="#EBEDF0" height="4" rx="1" ry="1" width="4" x="285.40000000000003" y="46.699999999999996"><title>2025-12-27</title></rect><rect fill="#EBEDF0" height="4" rx="1" ry="1" width="4" x="285.40000000000003" y="52.1"><title>2025-12-28</title></rect><rect fill="#EBEDF0" height="4" rx="1" ry="1" width="4" x="290.8" y="19.7"><title>2025-12-29</title></rect><rect fill="#EBEDF0" height="4" rx="1" ry="1" width="4" x="290.8" y="25.1"><title>2025-12-30</title></rect><rect fill="#EBEDF0" height="4" rx="1" ry="1" width="4" x="290.8" y="30.5"><title>2025-12-31</title></rect></svg>